# xmcd
#
# Track frame offsets:
#	150
#	14464
#	26549
#	43256
#	59146
#	77432
#	95034
#	110839
#	145895
#	161502
#	176591
#	193180
#	207699
#	225749
#	238933
#
# Disc length: 3368 seconds
#
# Revision: 1
# Processed by: cddbd v1.5.2PL0 Copyright (c) Steve Scherf et al.
# Submitted via: audiograbber 1.83.01
#
DISCID=df0d260f
DTITLE=Various Artist - CD 1 - So a schnöner Tag - 2009
DYEAR=2009
DGENRE=Schlager
TTITLE0=Lieblinks - So a schöner Tag (Fliegerlied)
TTITLE1=Manfred Morgan - Zuerst kam die Sonne
TTITLE2=Mario Felsen - Über den Wolken
TTITLE3=Geier Sturzflug - Die pure Lust am Leben
TTITLE4=Udo Goldmann - Die Sonne und Du
TTITLE5=Tina Rainford - Silverbird
TTITLE6=Wellkamm - Allee, Allee (eine Straße viele Bäume)
TTITLE7=Frank Zander - Kurt will tanzen (Maxi Version von "Hier kommt Kurt")
TTITLE8=Danielle - Und jetzt nehm' ich dich in die Arme
TTITLE9=Paul Polo - Hörst du die Regenwürmer husten
TTITLE10=Gpunkt Hupe - Komm unter meine Decke - du Schnecke
TTITLE11=Roberto Falcone - Sag mir Quando, sag mir wann
TTITLE12=Chris Rainbow - 7 Sünden
TTITLE13=BB Jürgen - Ich mach ein glückliches Mädchen aus dir
TTITLE14=Heri ohne Schäferin - Das Schäferlied
EXTD=
EXTT0=
EXTT1=
EXTT2=
EXTT3=
EXTT4=
EXTT5=
EXTT6=
EXTT7=
EXTT8=
EXTT9=
EXTT10=
EXTT11=
EXTT12=
EXTT13=
EXTT14=
PLAYORDER=
